<?xml version="1.0" encoding="UTF-8"?>
<svg width="128pt" height="128pt" version="1.1" viewBox="0 0 128 128" xmlns="http://www.w3.org/2000/svg">
 <path d="m84.246 113.66h-40.492c-10.148 0-18.406-8.2539-18.406-18.406v-41.344h0.003906c0-1.1289 0.91406-2.0469 2.0469-2.0469h73.199c0.53906 0 1.0664 0.21484 1.4453 0.60156 0.38672 0.38672 0.60156 0.90625 0.60156 1.4453v41.344c0 10.145-8.2539 18.406-18.398 18.406zm-54.797-57.703v39.293c0.003906 7.8984 6.4062 14.305 14.305 14.316h40.492c7.8984-0.011718 14.301-6.4141 14.305-14.316v-39.293z"/>
 <path d="m27.398 78.734c-0.16016 0-0.32031-0.019531-0.48047-0.054687l-14.602-3.5156c-0.92188-0.21875-1.5703-1.0469-1.5703-1.9883v-9.625c0-1.1289 0.92188-2.0469 2.0508-2.0469h14.602c0.54687 0 1.0664 0.21484 1.4492 0.60156 0.38672 0.37891 0.60156 0.90625 0.60156 1.4453v13.137c0 0.54688-0.21484 1.0664-0.60156 1.4492-0.38672 0.38672-0.90625 0.60156-1.4492 0.60156zm-12.555-7.1719 10.504 2.5234 0.003906-8.4883h-10.504z"/>
 <path d="m100.6 78.734c-1.1289 0-2.0508-0.92188-2.0508-2.0508v-13.137c0-1.1289 0.92188-2.0469 2.0508-2.0469h14.602c0.54688 0 1.0664 0.21484 1.4492 0.60156 0.37891 0.37891 0.60156 0.90625 0.60156 1.4453v9.625c0 0.94531-0.64844 1.7695-1.5703 1.9883l-14.602 3.5156c-0.16016 0.035157-0.32031 0.054688-0.48047 0.054688zm2.0508-13.137v8.4883l10.5-2.5312v-5.9609z"/>
 <path d="m101.04 55.961h-74.09c-3.8711-0.050782-6.9766-3.1992-6.9766-7.0703 0-3.8633 3.1055-7.0156 6.9766-7.0664h74.09c3.8711 0.050781 6.9766 3.1992 6.9766 7.0664 0 3.8711-3.1055 7.0195-6.9766 7.0703zm-74.09-10.039c-1.6211 0.03125-2.9141 1.3555-2.9141 2.9688 0 1.6211 1.2969 2.9414 2.9141 2.9766h74.09c1.6211-0.035157 2.9141-1.3555 2.9141-2.9766 0-1.6133-1.2969-2.9414-2.9141-2.9688z"/>
 <path d="m100.29 45.922h-72.57c-1.1289 0-2.0469-0.92188-2.0469-2.0508 0-9.4258 7.6641-17.09 17.09-17.09h42.488c9.4258 0 17.09 7.6641 17.09 17.09h-0.003907c0 0.54688-0.21484 1.0664-0.60156 1.4492-0.38672 0.38672-0.91016 0.60156-1.4492 0.60156zm-70.359-4.0938h68.148c-1.0156-6.3008-6.4453-10.934-12.824-10.949h-42.488c-6.3867 0.011719-11.82 4.6445-12.836 10.949z"/>
 <path d="m70.059 30.875h-12.121c-1.1367 0-2.0508-0.91406-2.0508-2.0469v-6.3789c0-4.4766 3.6289-8.1094 8.1094-8.1094 4.4805 0 8.1094 3.6367 8.1094 8.1094v6.3789c0 0.53906-0.21484 1.0586-0.60156 1.4453-0.38672 0.38672-0.90625 0.60156-1.4492 0.60156zm-10.074-4.0938h8.0312v-4.3281c0-2.2148-1.8008-4.0117-4.0156-4.0117s-4.0156 1.7969-4.0156 4.0117z"/>
</svg>
