<?xml version="1.0" encoding="UTF-8"?>
<svg width="128pt" height="128pt" version="1.1" viewBox="0 0 128 128" xmlns="http://www.w3.org/2000/svg">
 <path d="m107.32 62.098c-1.1289 0-2.0469-0.91797-2.0469-2.0469v-15.141c0.011719-0.50781-0.17969-1.0039-0.53516-1.3672-0.35938-0.36719-0.84766-0.57422-1.3555-0.57422-0.51172 0-1 0.20703-1.3594 0.57422-0.35547 0.36328-0.54688 0.85938-0.53516 1.3672v15.141c0 1.1289-0.91797 2.0469-2.0469 2.0469-1.1328 0-2.0469-0.91797-2.0469-2.0469v-15.141c-0.023437-1.6016 0.59375-3.1484 1.7227-4.2891 1.125-1.1445 2.6602-1.7852 4.2656-1.7852 1.6016 0 3.1367 0.64062 4.2656 1.7852 1.125 1.1406 1.7461 2.6875 1.7227 4.2891v15.141c0 1.1289-0.91797 2.0469-2.0508 2.0469z"/>
 <path d="m99.438 62.098c-1.1328 0-2.0469-0.91797-2.0469-2.0469v-20.48c0-1.0469-0.84766-1.8945-1.8945-1.8945s-1.8945 0.84766-1.8945 1.8945v20.48c0 1.1289-0.91406 2.0469-2.0469 2.0469-1.1328 0-2.0469-0.91797-2.0469-2.0469v-20.48c0-3.3086 2.6797-5.9883 5.9883-5.9883s5.9883 2.6797 5.9883 5.9883v20.48c0 0.54297-0.21484 1.0625-0.59766 1.4492-0.38672 0.38281-0.90625 0.59766-1.4492 0.59766z"/>
 <path d="m83.672 68.352c-1.1289 0-2.0469-0.91797-2.0469-2.0469v-23.363c0-3.3086 2.6797-5.9883 5.9883-5.9883 3.3086 0 5.9883 2.6797 5.9883 5.9883v17.109c0 1.1289-0.91406 2.0469-2.0469 2.0469-1.1328 0-2.0469-0.91797-2.0469-2.0469v-17.109c0-1.0469-0.84766-1.8945-1.8945-1.8945s-1.8945 0.84766-1.8945 1.8945v23.363c0 0.54297-0.21484 1.0625-0.59766 1.4492-0.38281 0.38281-0.90625 0.59766-1.4492 0.59766z"/>
 <path d="m100.03 94.414h-5.6797c-3.2305-0.003906-6.375-1.0703-8.9414-3.0312-2.5703-1.9609-4.4258-4.7109-5.2812-7.8281l-0.57031-2.0938h-0.003906c-0.71094-2.6016-2.0273-4.9961-3.8398-6.9922l-7.3633-8.0859-0.039062-0.046874c-2.1484-2.5-1.9805-6.2383 0.38672-8.5352 2.3633-2.293 6.1094-2.3516 8.543-0.125l7.8086 7.1094c0.81641 0.76562 0.86328 2.043 0.11328 2.8711-0.75391 0.82812-2.0312 0.89453-2.8711 0.15625l-7.8086-7.1094c-0.83594-0.73438-2.0898-0.70703-2.8945 0.0625-0.80078 0.76953-0.87891 2.0234-0.17578 2.8867l7.3359 8.0586c2.2461 2.4766 3.875 5.4492 4.7578 8.6719l0.57031 2.0938 0.003906 0.003907c1.2695 4.625 5.4727 7.832 10.27 7.8398h5.6797c5.2422 0.023438 9.7109-3.793 10.512-8.9727 0.003906-0.015625 0.003906-0.027344 0.007812-0.042968 0.72656-3.9922 2.6016-14.938 2.6016-17.707v-14.418c0-1.0469-0.84766-1.8945-1.8945-1.8945-1.043 0-1.8906 0.84766-1.8906 1.8945v10.871c0 1.1289-0.91797 2.0469-2.0508 2.0469-1.1289 0-2.0469-0.91797-2.0469-2.0469v-10.871c0-3.3086 2.6836-5.9883 5.9883-5.9883 3.3086 0 5.9883 2.6797 5.9883 5.9883v14.418c0 3.625-2.3711 16.809-2.6641 18.414l0.003907-0.003907c-0.55469 3.4609-2.3242 6.6133-4.9922 8.8867-2.668 2.2734-6.0586 3.5195-9.5625 3.5195z"/>
 <path d="m28.562 62.098c-1.1289 0-2.0469-0.91797-2.0469-2.0469v-15.141c0.011719-0.50781-0.17969-1.0039-0.53516-1.3672-0.35938-0.36719-0.84766-0.57422-1.3594-0.57422-0.50781 0-0.99609 0.20703-1.3555 0.57422-0.35547 0.36328-0.54688 0.85938-0.53516 1.3672v15.141c0 1.1289-0.91797 2.0469-2.0469 2.0469-1.1328 0-2.0508-0.91797-2.0508-2.0469v-15.141c-0.023437-1.6016 0.59766-3.1484 1.7227-4.2891 1.1289-1.1445 2.6641-1.7852 4.2656-1.7852 1.6055 0 3.1406 0.64062 4.2656 1.7852 1.1289 1.1406 1.7461 2.6875 1.7227 4.2891v15.141c0 0.54297-0.21484 1.0625-0.59766 1.4492-0.38281 0.38281-0.90625 0.59766-1.4492 0.59766z"/>
 <path d="m36.445 62.098c-1.1328 0-2.0469-0.91797-2.0469-2.0469v-20.48c0-1.0469-0.84766-1.8945-1.8945-1.8945s-1.8945 0.84766-1.8945 1.8945v20.48c0 1.1289-0.91406 2.0469-2.0469 2.0469-1.1289 0-2.0469-0.91797-2.0469-2.0469v-20.48c0-3.3086 2.6797-5.9883 5.9883-5.9883s5.9883 2.6797 5.9883 5.9883v20.48c0 0.54297-0.21484 1.0625-0.59766 1.4492-0.38672 0.38281-0.90625 0.59766-1.4492 0.59766z"/>
 <path d="m44.328 68.352c-1.1328 0-2.0469-0.91797-2.0469-2.0469v-23.363c0-1.0469-0.84766-1.8945-1.8945-1.8945s-1.8945 0.84766-1.8945 1.8945v17.109c0 1.1289-0.91406 2.0469-2.0469 2.0469-1.1328 0-2.0469-0.91797-2.0469-2.0469v-17.109c0-3.3086 2.6797-5.9883 5.9883-5.9883 3.3086 0 5.9883 2.6797 5.9883 5.9883v23.363c0 0.54297-0.21484 1.0625-0.59766 1.4492-0.38672 0.38281-0.90625 0.59766-1.4492 0.59766z"/>
 <path d="m33.648 94.414h-5.6797c-3.5039 0-6.8945-1.2461-9.5625-3.5195-2.668-2.2734-4.4375-5.4258-4.9922-8.8867-0.29297-1.6016-2.6602-14.789-2.6602-18.41v-14.418c0-3.3086 2.6797-5.9883 5.9883-5.9883 3.3047 0 5.9883 2.6797 5.9883 5.9883v10.871c0 1.1289-0.91797 2.0469-2.0469 2.0469-1.1328 0-2.0508-0.91797-2.0508-2.0469v-10.871c0-1.0469-0.84766-1.8945-1.8906-1.8945-1.0469 0-1.8945 0.84766-1.8945 1.8945v14.418c0 2.7695 1.875 13.719 2.6016 17.703 0.003906 0.015625 0.003906 0.027344 0.007812 0.042969 0.80078 5.1797 5.2695 8.9961 10.512 8.9727h5.6797c4.7969-0.007812 9-3.2148 10.27-7.8398l0.57422-2.0938c0.88281-3.2227 2.5156-6.1914 4.7617-8.668l7.3359-8.0586c0.6875-0.82031 0.66406-2.0234-0.058594-2.8164-0.79297-0.87109-2.1445-0.93359-3.0195-0.14062l-7.8086 7.1094v0.003906c-0.39844 0.375-0.93359 0.57422-1.4805 0.55078-0.54688-0.019531-1.0625-0.26172-1.4336-0.66797-0.37109-0.40625-0.55859-0.94141-0.53125-1.4883 0.03125-0.55078 0.27734-1.0625 0.69141-1.4258l7.8086-7.1094h-0.003906c2.4336-2.2227 6.1797-2.168 8.5469 0.12891 2.3633 2.293 2.5352 6.0352 0.38672 8.5352l-0.039062 0.046874-7.3594 8.0859-0.003906-0.003906c-1.8125 1.9961-3.1289 4.3945-3.8398 6.9922l-0.57422 2.0977c-0.85547 3.1172-2.7109 5.8672-5.2812 7.8281-2.5664 1.9609-5.7109 3.0273-8.9414 3.0312z"/>
</svg>
